<?xml version="1.0" encoding="UTF-8" standalone="no"?>
<!-- Created with Inkscape (http://www.inkscape.org/) -->

<svg
   width="210mm"
   height="297mm"
   viewBox="0 0 210 297"
   version="1.1"
   id="svg5"
   inkscape:version="1.1.2 (0a00cf5339, 2022-02-04)"
   sodipodi:docname="portfolio_website_logo.svg"
   xmlns:inkscape="http://www.inkscape.org/namespaces/inkscape"
   xmlns:sodipodi="http://sodipodi.sourceforge.net/DTD/sodipodi-0.dtd"
   xmlns="http://www.w3.org/2000/svg"
   xmlns:svg="http://www.w3.org/2000/svg">
  <sodipodi:namedview
     id="namedview7"
     pagecolor="#505050"
     bordercolor="#eeeeee"
     borderopacity="1"
     inkscape:pageshadow="0"
     inkscape:pageopacity="0"
     inkscape:pagecheckerboard="0"
     inkscape:document-units="mm"
     showgrid="false"
     inkscape:zoom="0.56569164"
     inkscape:cx="18.561349"
     inkscape:cy="562.14372"
     inkscape:window-width="1920"
     inkscape:window-height="1023"
     inkscape:window-x="0"
     inkscape:window-y="0"
     inkscape:window-maximized="1"
     inkscape:current-layer="layer1" />
  <defs
     id="defs2" />
  <g
     inkscape:label="Layer 1"
     inkscape:groupmode="layer"
     id="layer1"
     style="display:inline">
    <g
       id="g4762"
       inkscape:export-filename="/home/molokochris/Documents/logo(alt).png"
       inkscape:export-xdpi="96"
       inkscape:export-ydpi="96">
      <rect
         style="fill:#ffb380;fill-rule:evenodd;stroke-width:0.932244"
         id="rect2940"
         width="42.048813"
         height="33.121986"
         x="83.993484"
         y="152.38972"
         ry="0" />
      <rect
         style="fill:#ffccaa;fill-rule:evenodd;stroke-width:0.932244"
         id="rect2940-3"
         width="42.048813"
         height="33.121986"
         x="93.595375"
         y="120.74669"
         ry="0" />
      <rect
         style="fill:#c8b7b7;fill-rule:evenodd;stroke-width:0.932244"
         id="rect2940-3-6"
         width="42.048813"
         height="33.121986"
         x="73.728386"
         y="107.85891"
         ry="0" />
      <rect
         style="fill:#008080;fill-rule:evenodd;stroke-width:0.932244"
         id="rect2940-3-7"
         width="42.048813"
         height="33.121986"
         x="41.944672"
         y="119.26775"
         ry="0" />
      <rect
         style="fill:#917c6f;fill-rule:evenodd;stroke-width:0.207294"
         id="rect2935"
         width="40.888657"
         height="38.217556"
         x="62.588142"
         y="135.86067" />
      <rect
         style="fill:#917ca5;stroke-width:0.219673;fill-opacity:0.55035895"
         id="rect3363"
         width="16.857889"
         height="13.168527"
         x="83.853714"
         y="139.23581" />
      <path
         style="fill:#de8787;fill-opacity:0.550359;stroke-width:0.264583"
         id="path4553"
         d="m 66.23991,144.63619 c 1.421612,0.10905 2.846785,0.15903 4.269537,0.2485 0.695515,0.0656 1.394573,0.0963 2.08853,0.17765 0.436894,0.0541 0.8747,0.0898 1.30932,0.16084 0.402691,0.0859 0.802839,0.17433 1.213379,0.21056 0.496983,0.0299 0.995151,0.0288 1.492838,0.0314 0.420931,0.002 0.841862,-0.001 1.262795,-5.3e-4 0,0 3.219895,-2.3399 3.219895,-2.3399 v 0 c -0.421442,0.002 -0.842886,-2e-5 -1.264323,0.003 -0.492905,0.002 -0.985948,0.003 -1.478695,-0.0117 -0.401227,-0.0136 -0.794372,-0.0667 -1.184185,-0.16717 -0.43747,-0.0992 -0.878761,-0.148 -1.32543,-0.18364 -0.706956,-0.0919 -1.418913,-0.11807 -2.129285,-0.17725 -1.417558,-0.0931 -2.840476,-0.10554 -4.254807,-0.25093 0,0 -3.219569,2.29958 -3.219569,2.29958 z" />
      <path
         style="fill:#de8787;fill-opacity:0.550359;stroke-width:0.264583"
         id="path4555"
         d="m 68.589614,151.34843 c 1.016183,-0.0113 2.032447,-0.004 3.048643,0.002 0.480642,1.6e-4 0.961266,0.005 1.441902,0.005 0.373764,10e-4 0.747525,-5.3e-4 1.121286,-7.9e-4 0.424244,-2.2e-4 0.848484,1.5e-4 1.272728,-2.7e-4 0.336553,-10e-4 0.673097,0.002 1.009642,0.003 0,0 3.227221,-2.34472 3.227221,-2.34472 v 0 c -0.339328,0.002 -0.678654,0.004 -1.017987,0.003 -0.423985,-5.3e-4 -0.847963,-7e-5 -1.271948,-2.7e-4 -0.373099,-1e-4 -0.746199,-0.002 -1.119301,-7.9e-4 -0.485116,2.6e-4 -0.970219,0.005 -1.455338,0.005 -1.017595,0.006 -2.035262,0.0129 -3.052844,0.002 0,0 -3.204004,2.32785 -3.204004,2.32785 z" />
      <path
         style="fill:#de8787;fill-opacity:0.550359;stroke-width:0.264583"
         id="path4557"
         d="m 67.574702,158.91043 c 1.718161,-0.0197 3.43645,-0.0165 5.154686,-0.0129 1.420884,0.004 2.841784,0.006 4.262676,0.005 1.15765,0.004 2.3153,0.003 3.472955,0.003 1.263041,-0.002 2.526085,-0.003 3.789127,-0.002 0.917612,5.3e-4 1.835213,0.006 2.752817,0.009 0.510083,0.002 1.020165,0.002 1.530247,0.004 0.389006,0.002 0.77801,-7.9e-4 1.167022,-2e-5 0.369935,0.002 0.73987,9e-5 1.109808,1.9e-4 0.411302,-0.002 0.822605,-6e-5 1.233908,2.6e-4 0.417322,1e-5 0.834644,-0.002 1.251966,-7.9e-4 0.260416,0.001 0.520827,0.003 0.781243,0.003 0.07555,2.7e-4 0.151104,5.3e-4 0.226655,5.3e-4 0,0 3.230359,-2.34699 3.230359,-2.34699 v 0 c -0.076,5e-5 -0.151998,1.7e-4 -0.227997,5.3e-4 -0.263628,0.001 -0.527253,0.003 -0.790882,0.003 -0.416613,7.9e-4 -0.833225,-7.9e-4 -1.249841,-7.9e-4 -0.411602,2.6e-4 -0.823201,0.002 -1.2348,2.6e-4 -0.370107,1e-4 -0.740211,-0.002 -1.110319,1.9e-4 -0.388995,7.9e-4 -0.777986,-0.002 -1.166979,-2e-5 -0.513432,0.002 -1.026869,0.002 -1.540303,0.004 -0.925674,0.003 -1.85134,0.008 -2.777019,0.009 -1.260981,0.001 -2.521961,-2.7e-4 -3.782941,-0.002 -1.16069,9e-5 -2.321378,-2.6e-4 -3.482062,0.003 -1.425774,-5.3e-4 -2.851558,0.001 -4.277326,0.005 -1.706361,0.004 -3.412781,0.007 -5.119066,-0.0129 0,0 -3.203934,2.32779 -3.203934,2.32779 z" />
      <path
         style="fill:#de8787;fill-opacity:0.550359;stroke-width:0.264583"
         id="path4559"
         d="m 68.148662,165.16804 c 2.014355,0.12589 4.031634,0.20512 6.048129,0.28976 2.070047,0.0847 4.141682,0.11199 6.213181,0.12997 1.499317,0.0124 2.998679,0.0114 4.498031,0.013 0.864994,0.002 1.729975,0.007 2.594969,0.009 0.516105,0.002 1.032206,0.002 1.548313,0.002 0.480856,5.3e-4 0.961715,-2.6e-4 1.442569,8e-4 0.419542,0.001 0.839076,-5.3e-4 1.258615,0.001 0.29876,10e-4 0.597509,0.002 0.896268,5.3e-4 0.415512,-0.002 0.831027,-0.002 1.246545,-7.9e-4 0.249507,-1.8e-4 0.499015,5.3e-4 0.748525,5.3e-4 0,0 3.205657,-2.36543 3.205657,-2.36543 v 0 c -0.243414,0.038 -0.487818,0.0236 -0.733811,0.0251 -0.414727,8e-4 -0.829448,0.001 -1.244172,-7.9e-4 -0.299331,-0.002 -0.598657,-5.3e-4 -0.897988,5.3e-4 -0.42042,0.001 -0.840832,-1.4e-4 -1.261253,0.001 -0.481525,0.001 -0.963051,1.5e-4 -1.444577,7.9e-4 -0.517789,-2e-4 -1.035574,-1e-5 -1.553361,0.002 -0.87435,0.003 -1.748681,0.009 -2.623031,0.0117 -1.505215,0.003 -3.010443,0.005 -4.515657,0.003 -2.075072,-0.008 -4.150379,-0.0274 -6.224212,-0.1053 -1.994614,-0.0799 -3.990676,-0.16176 -5.980917,-0.31717 0,0 -3.221823,2.29967 -3.221823,2.29967 z" />
      <path
         style="fill:#de8787;fill-opacity:0.550359;stroke-width:0.264583"
         id="path4561"
         d="m 70.101708,171.03894 c 2.138796,-0.0261 4.277844,-0.0212 6.416762,-0.02 2.032497,0.001 4.064992,0.004 6.097484,0.008 1.384501,0.012 2.769452,-0.0313 4.150125,-0.13387 0.688758,-0.0518 1.376619,-0.10669 2.063088,-0.18271 0.444466,-0.0562 0.891501,-0.0767 1.338948,-0.088 0.504426,0.012 1.005507,-0.0315 1.506963,-0.0788 0.525804,-0.0499 1.054135,-0.0524 1.58137,-0.0742 0.531487,-0.0464 1.062363,-0.0949 1.595398,-0.11956 0.270835,-0.0187 0.54298,-0.004 0.813334,-0.0257 0,0 3.158109,-2.43475 3.158109,-2.43475 v 0 c -0.237897,0.1376 -0.496223,0.0988 -0.763958,0.10948 -0.536522,0.0202 -1.072829,0.0469 -1.606055,0.11279 -0.525441,0.0544 -1.054957,0.0231 -1.581597,0.0689 -0.497073,0.0355 -0.990364,0.12114 -1.490064,0.0995 -0.454811,0.002 -0.910863,0.005 -1.363107,0.0592 -0.691968,0.0757 -1.382014,0.16061 -2.077141,0.20602 -1.382032,0.12844 -2.770563,0.18661 -4.158639,0.18078 -2.039482,0.004 -4.078964,0.006 -6.118449,0.008 -2.120514,0.001 -4.24116,0.006 -6.361549,-0.02 0,0 -3.201022,2.32568 -3.201022,2.32568 z" />
    </g>
  </g>
</svg>
